<svg id="Capa_1" enable-background="new 0 0 512 512" height="512" viewBox="0 0 512 512" width="512" xmlns="http://www.w3.org/2000/svg"><g><path d="m302.604 314.499-179.589 102.557c-6.558 3.745-14.911 1.465-18.656-5.094l-102.557-179.589c-3.745-6.558-1.465-14.911 5.093-18.656l179.59-102.557c6.558-3.745 14.911-1.465 18.656 5.093l102.557 179.589c3.745 6.559 1.465 14.912-5.094 18.657z" fill="#dd636e"/><path d="m205.141 116.254c-3.745-6.558-12.098-8.839-18.656-5.093l-69.12 39.472v172.547c0 16.956 13.794 30.75 30.749 30.75h85.443l69.047-39.43c6.558-3.745 8.839-12.098 5.093-18.656z" fill="#da4a54"/><path d="m209.396 314.499 179.589 102.557c6.558 3.745 14.911 1.465 18.656-5.094l102.557-179.589c3.745-6.558 1.465-14.911-5.094-18.656l-179.589-102.557c-6.558-3.745-14.911-1.465-18.656 5.093l-102.557 179.59c-3.745 6.558-1.465 14.911 5.094 18.656z" fill="#95d6a4"/><path d="m394.635 150.633-69.12-39.472c-6.558-3.745-14.911-1.465-18.656 5.093l-102.557 179.589c-3.745 6.558-1.465 14.911 5.094 18.656l69.047 39.43h85.442c16.956 0 30.751-13.794 30.751-30.75v-172.546z" fill="#78c2a4"/><path d="m363.885 337.447h-215.77c-7.879 0-14.267-6.388-14.267-14.267v-215.771c0-7.879 6.388-14.267 14.267-14.267h215.771c7.879 0 14.267 6.388 14.267 14.267v215.771c-.001 7.879-6.388 14.267-14.268 14.267z" fill="#ffc250"/><path d="m363.885 93.142h-21.317c7.88 0 14.267 6.388 14.267 14.267v215.771c0 7.88-6.388 14.267-14.267 14.267h21.317c7.879 0 14.267-6.388 14.267-14.267v-215.771c0-7.88-6.387-14.267-14.267-14.267z" fill="#ebb044"/></g></svg>